<?xml version="1.0" encoding="UTF-8"?><svg xmlns="http://www.w3.org/2000/svg" xmlns:xlink="http://www.w3.org/1999/xlink" version="1.1" id="Layer_1" x="0px" y="0px" viewBox="0 0 24 24" xml:space="preserve"><path fill="#303C42" d="M21 1H3c-1.103 0-2 .897-2 2v18c0 1.103.897 2 2 2h18c1.103 0 2-.897 2-2V3c0-1.103-.897-2-2-2z"/><path fill="#5C6671" d="M22 21c0 .551-.449 1-1 1H3c-.551 0-1-.449-1-1V3c0-.551.449-1 1-1h18c.551 0 1 .449 1 1v18z"/><path fill="#303C42" d="M13.5 9h-1V4.5a.5.5 0 1 0-1 0V9h-1a.5.5 0 0 0-.5.5v2a.5.5 0 0 0 .5.5h1v1.5a.5.5 0 1 0 1 0V12h1a.5.5 0 0 0 .5-.5v-2a.5.5 0 0 0-.5-.5z"/><path fill="#FF8F00" d="M11 10h2v1h-2z"/><path fill="#303C42" d="M19.5 8h-1V4.5a.5.5 0 1 0-1 0V8h-1a.5.5 0 0 0-.5.5v2a.5.5 0 0 0 .5.5h1v2.5a.5.5 0 1 0 1 0V11h1a.5.5 0 0 0 .5-.5v-2a.5.5 0 0 0-.5-.5z"/><path fill="#FF8F00" d="M17 9h2v1h-2z"/><path fill="#303C42" d="M7.5 6h-1V4.5a.5.5 0 1 0-1 0V6h-1a.5.5 0 0 0-.5.5v2a.5.5 0 0 0 .5.5h1v4.5a.5.5 0 1 0 1 0V9h1a.5.5 0 0 0 .5-.5v-2a.5.5 0 0 0-.5-.5z"/><path fill="#FF8F00" d="M5 7h2v1H5z"/><circle fill="#303C42" cx="12" cy="18" r="2"/><circle fill="#303C42" cx="18" cy="18" r="2"/><circle fill="#FF8F00" cx="18" cy="18" r="1"/><path opacity="0.1" d="M18.408 17.092a.985.985 0 0 1 .092.408c0 .551-.449 1-1 1a.985.985 0 0 1-.408-.092A.999.999 0 0 0 18 19c.551 0 1-.449 1-1a.999.999 0 0 0-.592-.908z"/><circle fill="#303C42" cx="6" cy="18" r="2"/><circle fill="#FF8F00" cx="12" cy="18" r="1"/><path opacity="0.1" d="M12.408 17.092a.985.985 0 0 1 .092.408c0 .551-.449 1-1 1a.985.985 0 0 1-.408-.092A.999.999 0 0 0 12 19c.551 0 1-.449 1-1a.999.999 0 0 0-.592-.908z"/><circle fill="#FF8F00" cx="6" cy="18" r="1"/><path opacity="0.1" d="M6.408 17.092a.985.985 0 0 1 .092.408c0 .551-.449 1-1 1a.985.985 0 0 1-.408-.092A.999.999 0 0 0 6 19c.551 0 1-.449 1-1a.999.999 0 0 0-.592-.908z"/><path fill="#FF8F00" d="M10.461 19.262l-.004.004.04.039-.036-.043z"/><linearGradient id="SVGID_1_" gradientUnits="userSpaceOnUse" x1="5.1483765" y1="5.4551392" x2="21.5533447" y2="21.8601074"><stop offset="0" stop-color="#000" stop-opacity="0.1"/><stop offset="1" stop-color="#000" stop-opacity="0"/></linearGradient><path fill="url(#SVGID_1_)" d="M7.61 16.823c.242.331.39.736.39 1.177 0 1.103-.897 2-2 2-.5 0-.953-.191-1.305-.496L7.192 22h5.598l-5.178-5.178-.003.001zm-3.153 2.443l.04.039-.036-.043-.004.004zM5.5 9h-1a.497.497 0 0 1-.349-.143L5.5 10.206V9zm12.903-4.792v.01a.487.487 0 0 1 .097.282V8h1a.5.5 0 0 1 .5.5v2a.5.5 0 0 1-.5.5h-1v2.5a.5.5 0 1 1-1 0V11h-1a.5.5 0 0 1-.5-.5v-2c0-.18.1-.329.24-.417L12.46 4.3v.002c.026.06.041.127.041.197V9h1a.5.5 0 0 1 .5.5v2a.5.5 0 0 1-.5.5h-1v1.5a.5.5 0 1 1-1 0V12h-1a.5.5 0 0 1-.5-.5v-2a.5.5 0 0 1 .5-.5h.687L6.395 4.208c.062.083.105.18.105.292V6h1a.5.5 0 0 1 .5.5v2a.5.5 0 0 1-.5.5h-1v4.5a.5.5 0 0 1-.5.5l4 4c0-1.103.897-2 2-2s2 .897 2 2-.897 2-2 2c-.5 0-.953-.191-1.305-.496L13.192 22H21c.551 0 1-.449 1-1V7.805l-3.597-3.597zM18 20c-1.103 0-2-.897-2-2s.897-2 2-2 2 .897 2 2-.897 2-2 2z"/><linearGradient id="SVGID_2_" gradientUnits="userSpaceOnUse" x1="-0.6523309" y1="6.100121" x2="24.6523304" y2="17.8998795"><stop offset="0" stop-color="#FFF" stop-opacity="0.2"/><stop offset="1" stop-color="#FFF" stop-opacity="0"/></linearGradient><path fill="url(#SVGID_2_)" d="M21 1H3c-1.103 0-2 .897-2 2v18c0 1.103.897 2 2 2h18c1.103 0 2-.897 2-2V3c0-1.103-.897-2-2-2z"/><metadata><rdf:RDF xmlns:rdf="http://www.w3.org/1999/02/22-rdf-syntax-ns#" xmlns:rdfs="http://www.w3.org/2000/01/rdf-schema#" xmlns:dc="http://purl.org/dc/elements/1.1/"><rdf:Description about="https://iconscout.com/legal#licenses" dc:title="settings,setup,set,dashboard" dc:description="settings,setup,set,dashboard" dc:publisher="Iconscout" dc:date="2017-08-16" dc:format="image/svg+xml" dc:language="en"><dc:creator><rdf:Bag><rdf:li>Those Icons</rdf:li></rdf:Bag></dc:creator></rdf:Description></rdf:RDF></metadata></svg>